<?xml version="1.0" standalone="no"?>
<!DOCTYPE svg PUBLIC "-//W3C//DTD SVG 20010904//EN"
 "http://www.w3.org/TR/2001/REC-SVG-20010904/DTD/svg10.dtd">
<svg version="1.0" xmlns="http://www.w3.org/2000/svg"
 width="763.000000pt" height="339.000000pt" viewBox="0 0 763.000000 339.000000"
 preserveAspectRatio="xMidYMid meet">

<g transform="translate(0.000000,339.000000) scale(0.100000,-0.100000)"
fill="#000000" stroke="none">
<path d="M205 3178 c-3 -7 -4 -515 -3 -1128 l3 -1115 125 0 125 0 5 978 5 978
46 -53 c25 -29 391 -465 814 -968 422 -503 775 -921 783 -927 13 -10 252 -13
1122 -13 l1107 0 296 365 296 365 173 -212 c96 -117 230 -282 298 -366 l125
-152 42 0 43 0 0 -360 0 -360 125 0 125 0 0 360 0 360 598 0 c328 1 628 5 665
9 124 16 238 98 294 212 40 81 44 155 41 741 -3 548 -4 554 -26 610 -30 75
-79 137 -144 181 -100 69 -82 67 -973 65 l-799 -3 -288 -335 c-159 -184 -292
-336 -297 -338 -4 -1 -139 150 -300 338 l-291 340 -166 0 c-91 0 -164 -4 -162
-8 2 -5 165 -199 363 -432 198 -232 365 -430 371 -439 10 -13 -33 -71 -260
-348 l-271 -332 -867 0 -868 -1 0 370 0 370 725 0 725 0 0 130 0 130 -725 0
-725 0 0 370 0 370 903 2 902 3 0 125 0 125 -1037 3 -1038 2 0 -982 -1 -983
-37 40 c-20 22 -368 434 -772 915 -404 481 -761 905 -793 942 l-58 68 -170 0
c-126 0 -171 -3 -174 -12z m6934 -703 c61 -31 61 -28 61 -637 0 -537 -1 -554
-20 -586 -38 -63 -31 -62 -652 -62 -526 0 -566 1 -597 18 -19 10 -43 34 -53
53 -17 31 -18 70 -18 577 0 589 0 587 55 630 28 22 28 22 612 22 492 0 588 -2
612 -15z m-1529 -625 c0 -330 -3 -600 -7 -599 -7 0 -428 507 -486 585 l-18 24
138 162 c267 315 364 428 368 428 3 0 5 -270 5 -600z"/>
</g>
</svg>
